<svg width="569" height="70" viewBox="0 0 569 70" fill="none" xmlns="http://www.w3.org/2000/svg">
<path d="M100.408 46.056H79.384V47.016H96.376V48.936H88.888V49.416H81.4V50.856H76.504V52.296H74.392V53.736H64.312V55.656H79.384V57.576H71.704V58.536H78.424V59.496H82.456V60.936H83.896V62.376H85.24V63.336H85.336V65.256H87.352V65.736H86.296V66.216H83.896V66.696H78.328L78.04 67.656H75.064C74.808 68.104 74.52 68.424 74.2 68.616H77.752C77.432 68.872 76.984 69 76.408 69H59.032C58.456 69 58.008 68.872 57.688 68.616H54.04C53.72 68.424 53.432 68.104 53.176 67.656H56.056C55.864 67.336 55.768 67.016 55.768 66.696H61.336V66.216H63.736V65.736H64.792V65.256H62.776V63.336H62.68V62.376H61.336V60.936H59.896V59.496H55.864V58.536H49.144V57.576H56.824V55.656H22.84V57.576H36.568V58.536H34.552V60.936H34.936V62.376H33.112V63.336H32.44V65.256H32.728V65.736H39.832V66.216H33.88V66.696H37.336C37.336 67.016 37.24 67.336 37.048 67.656H31.768C31.576 68.104 31.256 68.424 30.808 68.616H30.232C29.912 68.872 29.432 69 28.792 69H11.416C10.84 69 10.392 68.872 10.072 68.616H10.744C10.552 68.488 10.36 68.36 10.168 68.232C10.04 68.04 9.912 67.848 9.784 67.656H15.16C14.968 67.336 14.872 67.016 14.872 66.696H11.32V66.216H17.272V65.736H10.168V65.256H9.88V63.336H10.552V62.376H12.376V60.936H11.992V58.536H14.008V57.576H0.28V55.656H21.016V53.736H2.104V52.296H1.624V50.856H9.496V49.416H12.28V48.936H6.136V47.016H19.576V46.056H28.984L28.696 45.576H11.608V45.096H14.776V44.616H12.376V42.696H12.472V41.736H14.68V40.296H14.2V38.376H11.608V37.896H2.968V36.936H10.456V36.456H10.168V35.496H14.392V34.536H16.696V33.096H1.528V31.176H13.624V30.216H2.872V28.776H14.008V27.816H12.664V26.856H9.016V26.376H10.84V24.936H21.88V23.496H20.248V22.536H11.128V22.056H10.648V20.616H15.16V18.696H5.176V17.736H8.632V17.256H9.592V16.296H7.384V14.856H16.024V13.416H11.608V11.496H18.904V11.016H16.6V9.096H25.144V7.65599H5.08V6.216H26.392V4.776H16.984V3.816H9.784C9.848 3.496 9.944 3.24 10.072 3.048C10.264 2.792 10.456 2.568 10.648 2.376H11.128C11.512 1.992 12.056 1.8 12.76 1.8H27.928C28.824 1.8 29.56 1.992 30.136 2.376H29.656C30.04 2.568 30.36 2.792 30.616 3.048C30.872 3.304 31.064 3.56 31.192 3.816H38.488L38.872 4.392L39.064 4.776H48.568L49.432 6.216H28.12L28.984 7.65599H48.952L49.816 9.096H41.368L42.52 11.016H44.824L45.112 11.496H37.816L38.968 13.416H43.288L44.152 14.856H35.608L36.472 16.296H38.68L39.256 17.256H38.296L38.584 17.736H35.128L35.704 18.696H45.688L46.84 20.616H42.328L43.192 22.056H43.672L43.96 22.536H51.064L51.352 22.056H48.76L49.624 20.616H52.792L53.944 18.696H52.216L52.792 17.736H45.016L45.304 17.256H55L55.576 16.296H54.808L55.672 14.856H61.432L62.296 13.416H62.584L63.736 11.496H59.32L59.608 11.016H69.688L70.84 9.096H70.264L71.128 7.65599H56.344L57.208 6.216H71.416L72.28 4.776H61.816L62.008 4.392C62.136 4.136 62.264 3.944 62.392 3.816H62.584C62.776 3.56 63 3.304 63.256 3.048C63.512 2.792 63.8 2.568 64.12 2.376H63.928C64.504 1.992 65.24 1.8 66.136 1.8H81.304C81.944 1.8 82.488 1.992 82.936 2.376H83.224C83.416 2.568 83.576 2.792 83.704 3.048C83.896 3.24 84.024 3.496 84.088 3.816H83.896V4.776H94.456V6.216H80.248V7.65599H95.032V9.096H95.608V11.016H85.528V11.496H89.944V13.416H89.656V14.856H83.896V16.296H84.664V17.256H74.968V17.736H82.744V18.696H84.472V20.616H81.4V22.056H83.896V22.536H88.408V23.496H78.52V24.936H85.624V26.376H83.896V26.856H84.28V27.816H85.624V28.776H74.488V30.216H85.24V31.176H73.144V33.096H88.312V34.536H86.008V35.496H81.784V36.456H82.072V36.936H74.584V37.896H83.224V38.376H85.816V40.296H83.608V41.736H81.976V42.696H83.896V44.616H84.76V45.096H88.888V45.576H100.408V46.056ZM55.48 22.536H53.08L53.656 23.496H54.904L55.48 22.536ZM44.152 26.376L44.44 26.856H48.184L48.472 27.432L48.856 26.856H48.472L48.76 26.376H50.392L51.256 24.936H45.208L46.072 26.376H44.152ZM58.36 41.736H61.048V40.296H59.224L58.36 41.736ZM34.936 44.616H37.336V45.096H34.168V45.576H40.696L40.408 45.096H38.872L38.488 44.616H37.624L36.472 42.696H36.664L36.088 41.736H35.032V42.696H34.936V44.616ZM77.848 46.056V45.576H66.328V45.096H62.2V44.616H61.336V42.696H59.8L58.552 44.616H59.512L59.224 45.096H60.76L60.472 45.576H52.6V46.056H42.136V47.016H28.696V48.936H34.84V49.416H32.056V50.856H24.184V52.296H24.664V53.736H51.832V52.296H53.944V50.856H45.88C45.688 51.112 45.496 51.368 45.304 51.624C45.112 51.88 44.856 52.104 44.536 52.296H44.248C43.672 52.68 43.032 52.872 42.328 52.872H35.608C34.84 52.872 34.168 52.68 33.592 52.296H33.88C33.624 52.104 33.368 51.88 33.112 51.624C32.92 51.368 32.728 51.112 32.536 50.856H42.424L42.136 50.472L41.464 49.416H38.008L37.72 48.936H44.44L43.192 47.016H54.424L53.848 46.056H77.848ZM73.816 48.936V47.016H61.24L60.088 48.936H53.464L53.176 49.416H56.632L55.96 50.472L55.672 50.856H58.84V49.416H66.328V48.936H73.816ZM155.843 41.256C155.907 41.576 155.939 41.896 155.939 42.216C155.939 42.536 155.939 42.856 155.939 43.176H149.123V44.136H145.187V45.096H148.931V45.576H144.611V47.016H142.211V47.496H147.587C147.587 47.688 147.555 47.848 147.491 47.976H147.203V48.456H148.067V48.552C148.067 48.808 148.035 49.096 147.971 49.416C147.971 49.736 147.939 50.056 147.875 50.376H147.203L146.915 52.296H148.355C148.355 52.552 148.291 52.872 148.163 53.256H147.875C147.811 53.512 147.747 53.768 147.683 54.024C147.619 54.216 147.555 54.44 147.491 54.696H148.259C148.195 55.016 148.099 55.336 147.971 55.656C147.843 55.976 147.715 56.296 147.587 56.616H146.147L145.763 57.576H145.955C145.827 57.832 145.763 57.992 145.763 58.056H145.379C145.123 58.696 144.771 59.336 144.323 59.976H144.515C144.451 60.104 144.355 60.264 144.227 60.456C144.099 60.648 143.971 60.808 143.843 60.936H143.747L142.595 62.376C142.531 62.44 142.467 62.504 142.403 62.568C142.339 62.632 142.243 62.728 142.115 62.856H141.635C141.379 63.112 141.123 63.368 140.867 63.624C140.611 63.816 140.323 64.04 140.003 64.296H137.123L135.107 65.736H135.491C135.363 65.8 135.235 65.864 135.107 65.928C134.979 65.992 134.851 66.088 134.723 66.216H134.051C133.923 66.28 133.763 66.344 133.571 66.408C133.379 66.472 133.219 66.568 133.091 66.696H138.275C137.955 66.888 137.603 67.08 137.219 67.272C136.835 67.4 136.451 67.528 136.067 67.656H134.435C133.987 67.848 133.507 68.04 132.995 68.232C132.483 68.36 131.971 68.488 131.459 68.616H131.843C131.075 68.808 130.275 68.968 129.443 69.096C128.611 69.288 127.747 69.448 126.851 69.576H129.827C128.803 69.704 127.747 69.8 126.659 69.864C125.571 69.928 124.451 69.96 123.299 69.96C122.083 69.96 120.931 69.928 119.843 69.864C118.819 69.8 117.763 69.704 116.675 69.576H113.603C112.771 69.448 111.907 69.288 111.011 69.096C110.179 68.968 109.379 68.808 108.611 68.616H108.323C107.811 68.488 107.299 68.36 106.787 68.232C106.339 68.04 105.859 67.848 105.347 67.656H106.883C106.563 67.528 106.211 67.4 105.827 67.272C105.443 67.08 105.091 66.888 104.771 66.696H99.5868L98.7228 66.216H99.3948L98.5308 65.736H98.1468C97.3788 65.224 96.7068 64.744 96.1308 64.296H99.0108C98.7548 64.04 98.4988 63.816 98.2428 63.624C97.9868 63.368 97.7308 63.112 97.4748 62.856H97.9548C97.8908 62.728 97.8268 62.632 97.7628 62.568C97.6988 62.504 97.6028 62.44 97.4748 62.376L96.3228 60.936H96.4188L95.7468 59.976H95.5547C95.1068 59.336 94.7548 58.696 94.4988 58.056H94.7868C94.6588 57.8 94.5948 57.64 94.5948 57.576H94.3068L93.9228 56.616H95.3628C95.2988 56.296 95.2028 55.976 95.0748 55.656C94.9468 55.336 94.8188 55.016 94.6908 54.696H93.9228C93.8588 54.44 93.7948 54.216 93.7308 54.024C93.6668 53.768 93.6028 53.512 93.5388 53.256H92.9628L92.6748 52.296H91.7148L91.4268 50.376H92.3867C92.3228 50.056 92.2588 49.736 92.1948 49.416C92.1948 49.096 92.1948 48.808 92.1948 48.552V48.456H90.4668V47.976H89.9868C89.9868 47.848 89.9548 47.752 89.8908 47.688C89.8908 47.624 89.8908 47.56 89.8908 47.496H95.2668C95.2668 47.304 95.2348 47.144 95.1708 47.016H89.7948V45.576H92.0988V45.096H93.2508V44.136H95.2668V43.176H89.4108C89.4108 42.856 89.4108 42.536 89.4108 42.216C89.4108 41.896 89.4428 41.576 89.5068 41.256H88.2587V40.296H97.7628C97.8268 40.104 97.8588 39.848 97.8588 39.528V38.856H95.2668C95.2668 38.6 95.2668 38.376 95.2668 38.184C95.3308 37.928 95.3628 37.672 95.3628 37.416H96.3228L96.6108 35.496H93.4428C93.5068 35.24 93.5708 35.016 93.6348 34.824C93.6988 34.568 93.7628 34.312 93.8268 34.056H93.1548C93.2828 33.736 93.3788 33.416 93.4428 33.096C93.5708 32.712 93.6988 32.392 93.8268 32.136H93.9228C93.9868 32.008 94.0508 31.848 94.1148 31.656C94.1788 31.464 94.2428 31.304 94.3068 31.176H94.2108C94.2108 31.112 94.2748 30.952 94.4028 30.696H94.8828C95.1388 30.056 95.4908 29.416 95.9388 28.776H94.0188L94.5948 27.816H98.1468C98.2108 27.688 98.3388 27.528 98.5308 27.336H91.5228C91.6508 27.08 91.8108 26.856 92.0028 26.664C92.2588 26.408 92.4828 26.152 92.6748 25.896H94.8828C95.2028 25.576 95.5228 25.256 95.8428 24.936C96.2268 24.552 96.5788 24.232 96.8988 23.976H101.315C101.891 23.464 102.563 22.984 103.331 22.536H105.155C105.411 22.344 105.667 22.184 105.923 22.056C106.243 21.864 106.531 21.704 106.787 21.576H101.123C101.699 21.256 102.403 20.936 103.235 20.616H105.827C107.299 20.04 108.835 19.56 110.435 19.176H107.555C110.691 18.472 114.019 18.12 117.539 18.12C121.059 18.12 124.387 18.472 127.523 19.176H130.499C132.099 19.56 133.603 20.04 135.011 20.616H132.323C133.155 20.936 133.859 21.256 134.435 21.576H140.099C140.419 21.704 140.707 21.864 140.963 22.056C141.283 22.184 141.571 22.344 141.827 22.536H140.003L142.019 23.976H137.603C137.987 24.232 138.339 24.552 138.659 24.936C139.043 25.256 139.395 25.576 139.715 25.896H137.507C137.699 26.152 137.891 26.408 138.083 26.664C138.339 26.856 138.531 27.08 138.659 27.336H145.763L146.051 27.816H142.595L143.171 28.776H145.091C145.539 29.416 145.891 30.056 146.147 30.696H145.667C145.795 30.952 145.859 31.112 145.859 31.176H146.051L146.435 32.136H146.339C146.467 32.392 146.595 32.712 146.723 33.096C146.851 33.416 146.947 33.736 147.011 34.056H147.971L148.259 35.496H147.683C147.811 35.752 147.875 36.072 147.875 36.456C147.939 36.776 148.003 37.096 148.067 37.416H148.835C148.899 37.672 148.931 37.928 148.931 38.184C148.931 38.376 148.963 38.6 149.027 38.856H145.283V39.528C145.283 39.848 145.315 40.104 145.379 40.296H143.459V41.256H155.843ZM118.979 37.416C118.915 37.672 118.851 37.928 118.787 38.184C118.787 38.376 118.787 38.6 118.787 38.856H121.475C121.411 39.048 121.379 39.24 121.379 39.432C121.379 39.624 121.379 39.816 121.379 40.008V40.296H121.763V40.008C121.763 39.816 121.731 39.624 121.667 39.432C121.667 39.24 121.667 39.048 121.667 38.856H125.411C125.411 38.6 125.379 38.376 125.315 38.184C125.315 37.928 125.315 37.672 125.315 37.416H124.547C124.483 37.032 124.387 36.68 124.259 36.36C124.195 36.04 124.099 35.752 123.971 35.496H124.643C124.387 34.92 124.003 34.44 123.491 34.056H122.531C121.891 33.672 121.059 33.48 120.035 33.48C119.011 33.48 118.211 33.672 117.635 34.056H118.307C118.051 34.248 117.827 34.472 117.635 34.728C117.443 34.92 117.283 35.176 117.155 35.496H120.323C120.259 35.752 120.163 36.04 120.035 36.36C119.971 36.68 119.907 37.032 119.843 37.416H118.979ZM125.507 43.176H132.323V41.256H119.939C119.875 41 119.843 40.68 119.843 40.296H111.875C111.875 40.68 111.843 41 111.779 41.256H113.027V43.176H118.883V44.136H116.771V45.096H115.619V45.576H113.315C113.315 45.832 113.315 46.088 113.315 46.344C113.379 46.536 113.411 46.76 113.411 47.016H120.995V45.576H125.315V45.096H121.571V44.136H125.507V43.176ZM123.971 47.976V47.496H113.507V47.976H113.987V48.072C113.987 48.136 113.987 48.2 113.987 48.264C114.051 48.328 114.083 48.392 114.083 48.456H115.715C115.779 48.776 115.811 49.096 115.811 49.416C115.811 49.736 115.843 50.056 115.907 50.376H114.947C115.075 51.208 115.203 51.848 115.331 52.296H116.387C116.515 52.68 116.643 53 116.771 53.256H117.443C118.019 54.152 119.107 54.6 120.707 54.6C122.307 54.6 123.395 54.152 123.971 53.256H124.355C124.419 53.128 124.483 53 124.547 52.872C124.611 52.68 124.675 52.488 124.739 52.296H123.299C123.363 51.976 123.427 51.688 123.491 51.432C123.555 51.112 123.619 50.76 123.683 50.376H124.355C124.419 50.056 124.451 49.736 124.451 49.416C124.451 49.096 124.483 48.776 124.547 48.456H123.683V47.976H123.971ZM238.941 46.536H237.117V47.016H238.461V47.976H234.909V48.456H237.693V49.896H236.445V51.336H237.213V51.816H236.637V52.776H237.021V54.216H237.213V55.176H236.925V56.136H236.829V58.056H237.309V59.976H236.157V61.896H235.773V62.856H237.213V64.776H235.293V66.696H237.021L236.733 67.656H238.365C238.109 68.104 237.821 68.424 237.501 68.616H237.213C236.893 68.872 236.445 69 235.869 69H218.973C218.397 69 217.949 68.872 217.629 68.616H217.821C217.501 68.424 217.213 68.104 216.957 67.656H215.229L214.941 66.696H213.213V64.776H215.133V62.856H213.693V61.896H214.077V59.976H215.229V58.056H214.749V56.136H214.845V55.176H215.133V54.216H214.941V52.776H214.557V51.816H215.133V51.336H214.365V49.896H215.613V48.456H212.829V47.976H206.109V48.456H207.357V49.896H207.165V51.336H208.029V51.816H207.549V52.776H207.357V54.216H207.26V55.176H207.357V56.136H207.741V58.056H203.708V59.976H208.989V61.896H207.453V62.856H207.357V64.776H206.781V66.696H207.357C207.357 66.888 207.325 67.08 207.26 67.272C207.197 67.4 207.133 67.528 207.069 67.656H209.181C209.053 67.848 208.893 68.04 208.701 68.232C208.573 68.36 208.413 68.488 208.221 68.616H202.653C202.333 68.872 201.885 69 201.309 69H184.413C183.837 69 183.389 68.872 183.069 68.616H188.637C188.189 68.424 187.869 68.104 187.677 67.656H185.565L185.277 66.696H184.701V64.776H185.277V62.856H185.373V61.896H186.909V59.976H181.629V58.056H185.661V56.136H185.277V55.176H185.181V54.216H185.277V52.776H185.469V51.816H185.949V51.336H185.085V49.896H185.277V48.456H184.029V47.976H191.229V47.016H186.909V46.536H187.677V44.616H185.277V42.696H185.469V42.216H184.797V40.776H185.949V40.296H185.373V40.008C185.373 39.688 185.341 39.4 185.277 39.144C185.277 38.888 185.245 38.632 185.181 38.376H185.757C185.757 37.992 185.661 37.672 185.469 37.416H184.701C184.445 36.84 184.061 36.36 183.549 35.976H184.029C183.517 35.528 182.781 35.304 181.821 35.304C180.925 35.304 180.157 35.528 179.517 35.976C179.069 36.36 178.685 36.84 178.365 37.416H178.077L177.789 38.376H178.365C178.301 38.632 178.269 38.888 178.269 39.144C178.269 39.4 178.269 39.688 178.269 40.008V40.296H176.925V40.776H177.789V42.216H177.597V42.696H177.213V44.616H175.773V46.536H175.484V47.016H180.861V47.976H179.421V48.456H177.597V49.896H177.405V51.336H178.077V51.816H177.885V52.776H177.693V53.736H177.309V54.216H177.021V55.176H177.789V58.056H174.333V59.976H177.885V61.896H177.501V62.856H178.173V64.776H177.885V66.408C177.885 66.472 177.853 66.536 177.789 66.6C177.789 66.6 177.789 66.632 177.789 66.696H178.269L177.981 67.656H175.869C175.677 68.104 175.357 68.424 174.909 68.616H181.821C181.501 68.872 181.053 69 180.477 69H163.197C162.621 69 162.173 68.872 161.853 68.616H154.941C154.621 68.424 154.333 68.104 154.077 67.656H156.093C156.029 67.528 155.965 67.4 155.901 67.272C155.837 67.08 155.805 66.888 155.805 66.696H155.421V64.776H155.709V62.856H155.037V61.896H155.421V59.976H151.869V58.056H155.325V55.176H154.557V54.216H154.845V53.736H155.229V52.776H155.421V51.816H155.613V51.336H154.941V49.896H155.133V48.456H156.957V47.976H158.397V47.016H153.021V46.536H153.309V44.616H154.749V42.696H155.133V42.216H155.325V40.776H154.461V40.296H155.805V38.376H155.133V37.416H155.421V35.976H155.517V35.016H154.941V34.536H155.325V33.096H154.461V31.656H155.133V30.216H155.037V28.296H155.229V27.816H154.461V26.856H155.613V24.936H154.557V24.456H153.98V23.976H150.044V22.536H142.94V22.056H151.293V21.672C151.293 21.096 151.453 20.584 151.773 20.136H157.148C157.277 19.944 157.437 19.784 157.629 19.656H153.405C153.789 19.272 154.333 19.08 155.037 19.08H170.877C171.517 19.08 172.061 19.272 172.509 19.656H176.733C176.861 19.72 176.957 19.784 177.021 19.848C177.085 19.912 177.149 20.008 177.213 20.136H171.837C172.157 20.584 172.317 21.096 172.317 21.672V22.056H163.965V22.536H171.069V23.976H175.005V24.456H175.581V24.84L175.869 24.456H175.773C175.837 24.328 175.965 24.168 176.156 23.976H179.901C180.285 23.464 180.765 22.984 181.341 22.536H183.741L184.317 22.056H178.077C178.525 21.736 178.973 21.416 179.421 21.096C179.933 20.712 180.477 20.392 181.053 20.136H182.013C182.141 20.008 182.269 19.912 182.397 19.848C182.589 19.784 182.781 19.72 182.973 19.656H187.293C188.253 19.208 189.277 18.856 190.365 18.6C191.453 18.344 192.605 18.184 193.821 18.12C197.533 17.992 200.541 18.504 202.845 19.656H198.525C198.653 19.72 198.813 19.784 199.005 19.848C199.197 19.912 199.357 20.008 199.485 20.136H198.525C199.485 20.712 200.317 21.352 201.021 22.056H211.197C211.709 21.672 212.189 21.32 212.637 21C213.149 20.68 213.661 20.392 214.173 20.136H209.949L211.005 19.656H212.637C213.725 19.144 214.845 18.76 215.997 18.504C217.149 18.248 218.333 18.12 219.549 18.12C222.365 18.12 224.893 18.632 227.133 19.656H225.501L226.557 20.136H230.781C231.293 20.392 231.741 20.68 232.125 21C232.573 21.32 233.021 21.672 233.469 22.056H221.181C221.309 22.12 221.405 22.184 221.469 22.248C221.533 22.312 221.597 22.408 221.661 22.536H236.925L238.173 23.976H222.717C222.781 24.104 222.909 24.264 223.101 24.456H232.893C233.085 24.648 233.213 24.808 233.277 24.936H233.757C233.949 25.192 234.141 25.512 234.333 25.896C234.525 26.216 234.717 26.536 234.909 26.856H233.757C233.885 26.984 233.981 27.144 234.045 27.336C234.109 27.528 234.173 27.688 234.237 27.816H234.909C235.037 28.072 235.101 28.232 235.101 28.296H235.005C235.133 28.552 235.261 28.872 235.389 29.256C235.517 29.576 235.613 29.896 235.677 30.216H235.773C235.837 30.472 235.901 30.728 235.965 30.984C236.029 31.176 236.093 31.4 236.157 31.656H235.485L235.773 33.096H236.637C236.701 33.352 236.733 33.608 236.733 33.864C236.733 34.056 236.765 34.28 236.829 34.536H236.541V35.016H237.117L237.213 35.976H237.405C237.469 36.232 237.501 36.488 237.501 36.744C237.501 36.936 237.501 37.16 237.501 37.416H237.213V38.376H236.445V40.296H238.653V40.776H237.213V42.216H237.021V44.616H238.941V46.536ZM205.437 22.536C205.629 22.792 205.821 23.048 206.013 23.304C206.205 23.496 206.365 23.72 206.493 23.976H211.965C212.221 23.72 212.477 23.496 212.733 23.304C212.989 23.048 213.245 22.792 213.501 22.536H205.437ZM203.229 24.456L203.517 24.936H204.669L205.149 25.992C205.277 25.8 205.405 25.64 205.533 25.512C205.661 25.32 205.789 25.128 205.917 24.936H205.437L205.917 24.456H203.229ZM216.381 47.016H215.037V46.536H216.861V44.616H214.941V42.216H215.133V40.776H216.573V40.296H214.365V40.008C214.365 39.688 214.365 39.4 214.365 39.144C214.365 38.888 214.333 38.632 214.269 38.376H215.037L214.749 37.416H215.037C214.781 36.84 214.397 36.36 213.885 35.976H213.693C213.181 35.528 212.445 35.304 211.485 35.304C210.589 35.304 209.821 35.528 209.181 35.976H208.701C208.317 36.296 207.965 36.776 207.645 37.416H208.509C208.317 37.672 208.221 37.992 208.221 38.376H207.549C207.485 38.632 207.453 38.888 207.453 39.144C207.453 39.4 207.453 39.688 207.453 40.008V40.296H208.029V40.776H206.877V42.216H207.549V42.696H207.357V44.616H209.757V46.536H208.989V47.016H213.309V47.976H216.381V47.016ZM294.09 42.696V43.656H306.282V44.616H298.89V45.576H295.434V46.536H298.41V47.112C298.41 47.496 298.378 47.784 298.314 47.976H299.658C299.21 49.128 298.378 49.704 297.162 49.704H268.554V49.896H272.394V50.184C272.394 50.44 272.394 50.728 272.394 51.048C272.394 51.304 272.426 51.56 272.49 51.816H267.306C267.306 52.008 267.306 52.2 267.306 52.392C267.37 52.52 267.402 52.648 267.402 52.776H266.826C266.826 53.032 266.89 53.352 267.018 53.736H267.402C267.722 54.632 268.234 55.272 268.938 55.656H266.346C266.794 55.912 267.402 56.04 268.17 56.04C268.682 56.04 269.098 55.912 269.418 55.656H273.93C274.186 55.528 274.41 55.336 274.602 55.08C274.858 54.824 275.146 54.568 275.466 54.312L276.042 53.736H274.218C274.794 53.224 275.658 52.968 276.81 52.968H294.954C295.722 52.968 296.298 53.224 296.682 53.736H298.41C298.73 54.184 298.89 54.632 298.89 55.08C298.826 55.208 298.794 55.4 298.794 55.656H294.282C294.154 56.296 293.962 56.936 293.706 57.576H289.002C288.81 57.896 288.65 58.216 288.522 58.536H300.426C300.298 58.856 300.106 59.176 299.85 59.496C299.658 59.816 299.434 60.136 299.178 60.456H296.298C296.042 60.84 295.786 61.16 295.53 61.416H296.202C296.138 61.48 296.074 61.544 296.01 61.608C295.946 61.672 295.882 61.768 295.818 61.896H290.442L289.962 62.376H291.594C291.53 62.44 291.434 62.504 291.306 62.568C291.242 62.632 291.178 62.728 291.114 62.856H294.09C293.642 63.304 293.066 63.784 292.362 64.296H290.922C290.858 64.36 290.762 64.424 290.634 64.488C290.506 64.552 290.378 64.648 290.25 64.776H289.194C288.17 65.48 287.05 66.12 285.834 66.696H284.586C283.818 67.08 282.986 67.432 282.09 67.752C281.258 68.072 280.362 68.36 279.402 68.616H277.866C277.162 68.808 276.426 68.968 275.658 69.096C274.89 69.288 274.058 69.448 273.162 69.576H277.194C276.298 69.704 275.37 69.8 274.41 69.864C273.45 69.928 272.426 69.96 271.338 69.96C270.314 69.96 269.29 69.928 268.266 69.864C267.242 69.8 266.25 69.704 265.29 69.576H261.258C260.426 69.448 259.626 69.288 258.858 69.096C258.09 68.968 257.322 68.808 256.554 68.616H258.09C256.362 68.168 254.73 67.528 253.194 66.696H254.442C253.29 66.056 252.298 65.416 251.466 64.776H252.522C252.394 64.648 252.266 64.552 252.138 64.488C252.074 64.424 251.978 64.36 251.85 64.296H253.29C253.034 64.04 252.778 63.816 252.522 63.624C252.266 63.368 252.01 63.112 251.754 62.856H248.682L248.202 62.376H246.57C246.506 62.248 246.442 62.152 246.378 62.088C246.314 62.024 246.25 61.96 246.186 61.896H251.466C251.402 61.768 251.274 61.608 251.082 61.416H250.41C250.282 61.288 250.154 61.128 250.026 60.936C249.898 60.744 249.77 60.584 249.642 60.456H252.522C252.33 60.136 252.138 59.816 251.946 59.496C251.754 59.176 251.562 58.856 251.37 58.536H239.37C239.178 58.216 239.018 57.896 238.89 57.576H243.594L242.73 55.656H245.322C245.194 55.336 245.066 55.016 244.938 54.696C244.874 54.376 244.778 54.056 244.65 53.736H244.362L244.074 52.776H244.746L244.458 51.816H249.642C249.578 51.496 249.514 51.176 249.45 50.856C249.386 50.536 249.322 50.216 249.258 49.896H245.418L245.226 47.976H243.882C243.882 47.72 243.85 47.496 243.786 47.304C243.786 47.048 243.786 46.792 243.786 46.536H240.81V45.576H244.17V44.616H251.562V43.656H239.37V43.464C239.37 43.144 239.402 42.888 239.466 42.696H256.074C256.074 42.44 256.074 42.216 256.074 42.024C256.138 41.768 256.17 41.512 256.17 41.256H240.906C240.906 41.128 240.906 41.032 240.906 40.968C240.97 40.904 241.002 40.84 241.002 40.776H247.338C247.338 40.584 247.37 40.424 247.434 40.296H254.538V39.816H241.002C241.066 39.496 241.13 39.176 241.194 38.856C241.258 38.536 241.322 38.216 241.386 37.896H245.034C245.034 37.64 245.098 37.32 245.226 36.936H242.058C242.058 36.808 242.058 36.712 242.058 36.648C242.122 36.584 242.154 36.52 242.154 36.456H244.458C244.458 36.328 244.458 36.232 244.458 36.168C244.522 36.104 244.554 36.04 244.554 35.976H242.154L242.346 35.496H244.65L244.938 34.536H246.762L247.338 33.096H245.61C245.738 32.776 245.866 32.456 245.994 32.136C246.122 31.752 246.282 31.432 246.474 31.176H246.186L246.378 30.696H243.978C244.106 30.44 244.17 30.28 244.17 30.216H241.962L242.538 29.256H247.242C247.306 29.128 247.434 28.968 247.626 28.776H249.354C249.61 28.456 249.834 28.136 250.026 27.816C250.282 27.432 250.538 27.112 250.794 26.856H249.066C249.258 26.6 249.45 26.376 249.642 26.184C249.898 25.928 250.154 25.672 250.41 25.416H254.154L255.114 24.456H249.45C250.282 23.752 251.114 23.112 251.946 22.536H257.226L257.994 22.056H256.266C256.778 21.736 257.386 21.416 258.09 21.096H261.834C263.562 20.264 265.354 19.624 267.21 19.176H261.834C263.242 18.856 264.714 18.6 266.25 18.408C267.786 18.216 269.386 18.12 271.05 18.12C272.714 18.12 274.282 18.216 275.754 18.408C277.226 18.6 278.634 18.856 279.978 19.176H285.258C286.218 19.432 287.114 19.72 287.946 20.04C288.842 20.36 289.706 20.712 290.538 21.096H286.794C287.114 21.224 287.402 21.384 287.658 21.576C287.978 21.704 288.266 21.864 288.522 22.056H290.25C290.378 22.12 290.506 22.184 290.634 22.248C290.762 22.312 290.89 22.408 291.018 22.536H285.738C286.57 23.112 287.402 23.752 288.234 24.456H293.994L294.954 25.416H291.21C291.466 25.672 291.69 25.928 291.882 26.184C292.138 26.376 292.362 26.6 292.554 26.856H294.282C294.538 27.112 294.762 27.432 294.954 27.816C295.21 28.136 295.466 28.456 295.722 28.776H293.898C293.962 28.904 294.09 29.064 294.282 29.256H289.482L290.058 30.216H292.266L292.554 30.696H295.05C295.05 30.76 295.114 30.92 295.242 31.176H295.53L296.394 33.096L296.97 34.536H297.066L297.354 35.496H296.202L296.394 35.976H297.258L297.45 36.456H298.986C298.986 36.52 298.986 36.584 298.986 36.648C299.05 36.712 299.082 36.808 299.082 36.936H298.314L298.602 37.896H294.954L295.242 39.816H308.778V40.296H301.674C301.674 40.36 301.674 40.424 301.674 40.488C301.738 40.552 301.77 40.648 301.77 40.776H295.338C295.402 40.904 295.434 41.064 295.434 41.256H310.698C310.698 41.512 310.698 41.768 310.698 42.024C310.698 42.216 310.73 42.44 310.794 42.696H294.09ZM264.906 36.456V36.936H267.978V37.704H275.658V36.936H276.33V36.456H274.794V35.976H273.834C273.834 35.784 273.802 35.624 273.738 35.496H274.89C274.89 35.24 274.826 34.92 274.698 34.536H274.602C274.538 33.96 274.346 33.48 274.026 33.096C273.386 32.072 272.394 31.56 271.05 31.56C269.77 31.56 268.81 32.072 268.17 33.096H269.898C269.642 33.48 269.45 33.96 269.322 34.536H267.402C267.402 34.664 267.37 34.824 267.306 35.016C267.306 35.144 267.274 35.304 267.21 35.496H264.906C264.906 35.688 264.874 35.848 264.81 35.976H267.21V36.456H264.906ZM361.199 61.896H375.503V63.816H367.343V65.256H365.999V66.216H360.047V66.696H363.023C362.895 67.592 362.511 68.232 361.871 68.616H359.759C359.439 68.872 358.959 69 358.319 69H339.983C339.407 69 338.959 68.872 338.639 68.616H340.751C340.111 68.232 339.727 67.592 339.599 66.696H336.527V66.216H342.479V65.256H343.823V63.816H351.983V61.896H337.679V59.976H341.231V59.496H338.063V58.536H338.159V57.576H336.623V55.656H337.871V53.736H333.935V51.816H334.895V49.896H339.311V47.976H338.255V47.016H337.871V46.536H337.487V45.096H338.063V44.616H338.543V43.656H338.447V42.696H338.159V41.736H334.127V40.776H335.183V40.584C335.183 40.328 335.151 40.104 335.087 39.912C335.087 39.72 335.087 39.528 335.087 39.336H337.007C336.943 39.016 336.879 38.76 336.815 38.568C336.751 38.312 336.687 38.088 336.623 37.896H338.351C337.967 37.064 337.423 36.424 336.719 35.976H333.647C332.943 35.528 332.015 35.304 330.863 35.304C329.711 35.304 328.815 35.528 328.175 35.976H330.479C330.159 36.232 329.839 36.52 329.519 36.84C329.263 37.096 329.071 37.448 328.943 37.896H326.063C325.935 38.152 325.807 38.632 325.679 39.336H326.159C326.095 39.592 326.063 40.008 326.063 40.584V40.776H325.391V41.736H328.559V42.696H328.751V43.656H328.463V44.616H327.791V45.096H327.119V46.536H328.175V47.016H328.847V47.976H328.463V49.896H330.959V51.816H328.271V53.736H328.751V55.656H327.695V57.576H328.847V58.536H328.751V59.016H329.039V59.496H334.319V59.976H336.527V61.896H330.575V63.816H330.767V65.256H327.119V66.216H331.247V66.696H332.303C332.175 67.592 331.759 68.232 331.055 68.616H326.639C326.319 68.872 325.871 69 325.295 69H307.055C306.479 69 306.031 68.872 305.711 68.616H310.127C309.423 68.232 309.007 67.592 308.879 66.696H307.823V66.216H303.695V65.256H307.343V63.816H307.151V61.896H313.103V59.976H310.895V59.496H305.615V59.016H305.327V58.536H305.423V57.576H304.271V55.656H305.327V53.736H304.847V51.816H307.535V49.896H305.039V47.976H305.423V47.016H304.751V46.536H303.695V45.096H304.367V44.616H305.039V43.656H305.327V42.696H305.135V41.736H301.967V40.776H302.639V39.336H302.159V37.896H305.039V35.976H302.639V34.536H304.751V33.576H305.327V32.136H304.943V30.696H305.039V28.296H305.519V27.336H305.423V25.896H306.671V25.416H305.903V23.976H307.055V23.496H303.215V22.536H305.999V21.096H311.183C311.311 20.712 311.439 20.392 311.567 20.136H308.495C309.007 19.432 309.711 19.08 310.607 19.08H327.407C328.303 19.08 329.007 19.432 329.519 20.136H331.151C332.559 19.496 334.063 19.016 335.663 18.696C337.263 18.312 338.927 18.12 340.655 18.12C343.855 18.12 346.735 18.792 349.295 20.136H350.351C350.671 20.264 350.959 20.424 351.215 20.616C351.471 20.744 351.727 20.904 351.983 21.096H350.639C350.959 21.288 351.279 21.512 351.599 21.768C351.919 21.96 352.207 22.216 352.463 22.536H359.951C360.335 22.792 360.655 23.112 360.911 23.496H355.631C355.695 23.56 355.759 23.624 355.823 23.688C355.887 23.752 355.951 23.848 356.015 23.976H357.359C357.551 24.232 357.743 24.488 357.935 24.744C358.127 24.936 358.287 25.16 358.415 25.416H359.279L359.567 25.896H358.319L359.183 27.336H359.279C359.407 27.656 359.567 27.976 359.759 28.296H359.279C359.599 29 359.855 29.64 360.047 30.216C360.047 30.28 360.111 30.44 360.239 30.696H360.143C360.271 30.952 360.335 31.208 360.335 31.464C360.399 31.656 360.463 31.88 360.527 32.136H360.911C361.039 32.392 361.103 32.648 361.103 32.904C361.167 33.096 361.231 33.32 361.295 33.576H360.623C360.751 33.96 360.815 34.28 360.815 34.536H358.799C358.863 34.792 358.895 35.048 358.895 35.304C358.895 35.496 358.927 35.72 358.991 35.976H362.063C362.127 36.232 362.159 36.552 362.159 36.936C362.223 37.256 362.255 37.576 362.255 37.896H360.527V39.336H358.703V40.776H357.647V41.736H361.679V42.696H361.967V43.656H362.063V44.616H361.583V45.096H361.007V46.536H361.391V47.016H361.775V47.976H362.831V49.896H358.415V51.816H357.455V53.736H361.391V55.656H360.143V57.576H361.679V58.536H361.583V59.496H364.751V59.976H361.199V61.896ZM328.943 21.096H327.887C327.887 21.16 327.887 21.256 327.887 21.384C327.951 21.448 327.983 21.544 327.983 21.672V21.768C328.111 21.64 328.271 21.512 328.463 21.384C328.655 21.256 328.815 21.16 328.943 21.096ZM325.199 22.536V23.496H333.167L334.319 22.536H325.199ZM327.887 23.976V24.84C328.015 24.648 328.271 24.36 328.655 23.976H327.887ZM414.951 58.056H412.647V59.016H416.103V59.976H419.271V61.416H417.063V62.856H423.495V64.296H413.031V66.216H413.799V66.408C413.799 66.536 413.767 66.632 413.703 66.696C413.575 67.336 413.351 67.816 413.031 68.136H412.263C412.007 68.392 411.815 68.552 411.687 68.616H414.951C414.631 68.872 414.183 69 413.607 69H402.759C401.671 69 400.583 68.968 399.495 68.904C398.471 68.84 397.479 68.744 396.519 68.616H393.255C392.807 68.552 392.359 68.488 391.911 68.424C391.463 68.296 390.983 68.2 390.471 68.136H391.239C390.407 67.944 389.607 67.72 388.839 67.464C388.135 67.208 387.431 66.952 386.727 66.696H386.823C386.631 66.568 386.439 66.472 386.247 66.408C386.055 66.344 385.895 66.28 385.767 66.216H384.999C384.487 65.896 383.975 65.608 383.463 65.352C382.951 65.032 382.439 64.68 381.927 64.296H392.487C392.231 64.04 391.943 63.816 391.623 63.624C391.367 63.368 391.111 63.112 390.855 62.856H384.423L383.175 61.416H385.479C385.287 61.16 385.095 60.936 384.903 60.744C384.775 60.488 384.647 60.232 384.519 59.976H381.351L380.775 59.016H377.319C377.255 58.888 377.191 58.728 377.127 58.536C377.063 58.344 376.967 58.184 376.839 58.056H379.239L378.663 56.616H380.583L380.295 55.656C380.167 55.272 380.103 54.952 380.103 54.696H387.687C387.623 54.44 387.559 54.216 387.495 54.024C387.495 53.768 387.495 53.512 387.495 53.256H376.551C376.551 53.128 376.519 53.032 376.455 52.968C376.455 52.904 376.455 52.84 376.455 52.776H376.167C376.167 52.52 376.135 52.296 376.071 52.104C376.071 51.848 376.071 51.592 376.071 51.336H375.783C375.783 51.08 375.751 50.856 375.687 50.664C375.687 50.408 375.687 50.152 375.687 49.896H377.031V49.416H376.167V48.456H375.399V46.536H376.551V44.616H375.399V43.176H376.263V42.216H376.359V40.776H376.839V37.416H377.031V35.976H377.511V35.88H369.927C368.967 35.88 368.199 35.432 367.623 34.536H369.063C368.871 34.152 368.775 33.736 368.775 33.288V32.616H365.703V31.176H366.375V29.256H365.895V28.296H366.087V27.336H367.527V26.856H365.127V25.416H368.007V23.976H367.431V23.016H366.759V21.576H366.183V21.096H365.895C366.087 20.136 366.695 19.496 367.719 19.176H368.295C368.487 19.112 368.743 19.08 369.063 19.08H376.647V18.696H377.031V17.256H376.263V16.296H376.167V14.856H375.783V14.376H373.479V13.416H371.271V12.936H372.039V12.456H374.247V10.536H375.111V9.576H372.039V8.616H376.743V7.17599H376.263V6.696H375.207V5.736H376.167V5.256H375.207V3.816H376.071V3.432C376.071 3.112 376.135 2.76 376.263 2.376H377.511C377.959 1.352 378.759 0.839996 379.911 0.839996H396.711C397.735 0.839996 398.535 1.352 399.111 2.376H397.863C397.991 2.76 398.055 3.112 398.055 3.432V3.816H397.191V5.256H398.151V5.736H397.191V6.696H398.247V7.17599H398.727V8.616H394.023V9.576H397.095V10.536H396.231V12.456H394.023V12.936H393.255V13.416H395.463V14.376H397.767V14.856H398.151V16.296H398.247V17.256H399.015V18.696H398.631V19.08H410.727C411.047 19.08 411.271 19.112 411.399 19.176H410.823C411.719 19.496 412.327 20.136 412.647 21.096H412.935C412.935 21.16 412.935 21.224 412.935 21.288C412.999 21.352 413.031 21.448 413.031 21.576H413.607V23.016H414.279V23.976H414.855V25.416H411.975V26.856H414.375V27.336H412.935V28.296H412.743V29.256H413.223V31.176H412.551V32.616H415.623V33.288C415.623 33.544 415.591 33.768 415.527 33.96C415.463 34.152 415.367 34.344 415.239 34.536H413.895C413.319 35.432 412.551 35.88 411.591 35.88H399.495V35.976H399.015V37.416H398.823V40.776H398.343V42.216H398.247V43.176H397.383V44.616H398.535V46.536H397.383C397.383 46.856 397.383 47.176 397.383 47.496C397.447 47.816 397.511 48.136 397.575 48.456H398.439C398.567 48.84 398.695 49.16 398.823 49.416H399.591L399.879 49.896H398.535C399.239 50.792 400.327 51.24 401.799 51.24H410.535C410.855 51.24 411.079 51.272 411.207 51.336H411.495C412.263 51.528 412.807 52.008 413.127 52.776H413.415C413.415 52.84 413.415 52.904 413.415 52.968C413.479 53.032 413.511 53.128 413.511 53.256H424.455C424.455 53.32 424.455 53.416 424.455 53.544C424.519 53.608 424.551 53.704 424.551 53.832V54.696H416.871V56.616H414.951V58.056ZM476.797 29.256H475.165V30.696H475.549V32.136H477.661V33.096H476.509V35.016H476.221V35.496H476.605V37.416H475.069V38.376H471.997V39.336H474.301V40.776H475.837V41.736H476.317V43.656H476.605V46.536H476.509V47.976H476.317V49.896H479.293V51.336H474.685V53.736H476.701V54.216H477.469V54.696H475.069V56.136H474.397V58.056H476.701V59.976H476.029V61.416H476.701V62.376H476.509V64.296H476.413V66.216H476.605V66.696H476.509C476.381 67.336 476.157 67.816 475.837 68.136H477.469C477.085 68.712 476.445 69 475.549 69H458.749C457.981 69 457.341 68.712 456.829 68.136H455.197C454.877 67.816 454.653 67.336 454.525 66.696H454.621V66.216H454.429V64.296H454.525V63.24C454.333 63.624 454.077 63.976 453.757 64.296H453.949C453.309 65.064 452.637 65.704 451.933 66.216H451.741C451.677 66.28 451.581 66.344 451.453 66.408C451.325 66.472 451.197 66.568 451.069 66.696H450.877C450.045 67.272 449.181 67.752 448.285 68.136H449.917C448.381 68.84 446.717 69.32 444.925 69.576H443.677C442.909 69.704 442.109 69.8 441.277 69.864C440.509 69.928 439.677 69.96 438.781 69.96C438.141 69.96 437.501 69.928 436.861 69.864C436.221 69.8 435.549 69.704 434.845 69.576H436.093C434.557 69.256 433.117 68.776 431.773 68.136H430.141C429.181 67.688 428.349 67.208 427.645 66.696H427.933C427.869 66.568 427.773 66.472 427.645 66.408C427.517 66.344 427.389 66.28 427.261 66.216H427.453C427.133 65.896 426.781 65.576 426.397 65.256C426.077 64.936 425.757 64.616 425.437 64.296H425.245C424.989 63.976 424.733 63.656 424.477 63.336C424.221 63.016 423.965 62.696 423.709 62.376H423.901C423.837 62.248 423.741 62.088 423.613 61.896C423.485 61.704 423.357 61.544 423.229 61.416H422.557C422.493 61.16 422.365 60.936 422.173 60.744C422.045 60.488 421.917 60.232 421.789 59.976H422.557C422.237 59.272 421.981 58.632 421.789 58.056H419.485C419.421 57.736 419.325 57.416 419.197 57.096C419.069 56.776 418.973 56.456 418.909 56.136H419.485L419.197 54.696H421.597C421.533 54.568 421.501 54.408 421.501 54.216H420.637C420.637 54.024 420.605 53.864 420.541 53.736H418.621C418.557 53.608 418.525 53.448 418.525 53.256C418.525 53.064 418.493 52.904 418.429 52.776H423.517C423.453 52.52 423.421 52.296 423.421 52.104C423.421 51.848 423.389 51.592 423.325 51.336H422.173C422.109 51.08 422.077 50.856 422.077 50.664C422.077 50.408 422.077 50.152 422.077 49.896H420.445V47.976H419.869V46.536H419.581V45.576H419.773V41.736H419.389V40.776H418.525V39.336H419.581V38.376H420.253V37.416H420.349V35.496H419.965V35.016H420.253V33.096H422.077V32.136H420.349V30.696H419.773V29.256H419.485V27.336H421.885V26.376H423.613V25.416H422.653V24.456H420.541V23.976H419.965V23.016H419.869V21.672C419.869 21.544 419.869 21.448 419.869 21.384C419.933 21.256 419.965 21.16 419.965 21.096H419.869C420.125 19.752 420.957 19.08 422.365 19.08H440.701C442.173 19.08 443.005 19.752 443.197 21.096H443.389V23.016H443.485V23.976H444.061V24.456H446.173V25.416H447.133V26.376H445.405V27.336H443.005V29.256H443.293V30.696H443.869V32.136H445.597V33.096H443.773V35.016H443.485V35.496H443.869V37.416H443.773V38.376H443.101V39.336H442.045V40.776H442.909V41.736H443.293V45.576H443.101V46.536H443.389V47.496C443.389 47.688 443.421 47.848 443.485 47.976H443.965C443.965 48.68 444.061 49.32 444.253 49.896H445.885C446.077 50.408 446.333 50.888 446.653 51.336H447.901C448.221 51.72 448.605 52.008 449.053 52.2C449.501 52.008 449.853 51.72 450.109 51.336H454.717C455.037 50.888 455.293 50.408 455.485 49.896H452.605C452.797 49.32 452.893 48.68 452.893 47.976H453.085V46.536H453.181V43.656H452.893V41.736H452.413V40.776H450.877V39.336H448.573V38.376H451.645V37.416H453.181V35.496H452.797V35.016H453.085V33.096H454.237V32.136H452.125V30.696H451.741V29.256H453.373V27.336H455.389V26.376H457.885V25.416H454.717V24.456H453.085V23.976H452.701V23.016H453.085V21.672C453.085 21.416 453.117 21.224 453.181 21.096H452.509C452.829 19.752 453.693 19.08 455.101 19.08H473.341C474.685 19.08 475.517 19.752 475.837 21.096H476.413C476.477 21.224 476.509 21.416 476.509 21.672V23.016H476.125V23.976H476.509V24.456H478.141V25.416H481.309V26.376H478.813V27.336H476.797V29.256ZM568.941 46.536H567.117V47.016H568.461V47.976H564.909V48.456H567.693V49.896H566.445V51.336H567.213V51.816H566.637V52.776H567.021V54.216H567.213V55.176H566.925V56.136H566.829V58.056H567.309V59.976H566.157V61.896H565.773V62.856H567.213V64.776H565.293V66.696H567.021L566.733 67.656H568.365C568.109 68.104 567.821 68.424 567.501 68.616H567.213C566.893 68.872 566.445 69 565.869 69H548.973C548.397 69 547.949 68.872 547.629 68.616H547.821C547.501 68.424 547.213 68.104 546.957 67.656H545.229L544.941 66.696H543.213V64.776H545.133V62.856H543.693V61.896H544.077V59.976H545.229V58.056H544.749V56.136H544.845V55.176H545.133V54.216H544.941V52.776H544.557V51.816H545.133V51.336H544.365V49.896H545.613V48.456H542.829V47.976H536.109V48.456H537.357V49.896H537.165V51.336H538.029V51.816H537.549V52.776H537.357V54.216H537.26V55.176H537.357V56.136H537.741V58.056H533.708V59.976H538.989V61.896H537.453V62.856H537.357V64.776H536.781V66.696H537.357C537.357 66.888 537.325 67.08 537.26 67.272C537.197 67.4 537.133 67.528 537.069 67.656H539.181C539.053 67.848 538.893 68.04 538.701 68.232C538.573 68.36 538.413 68.488 538.221 68.616H532.653C532.333 68.872 531.885 69 531.309 69H514.413C513.837 69 513.389 68.872 513.069 68.616H518.637C518.189 68.424 517.869 68.104 517.677 67.656H515.565L515.277 66.696H514.701V64.776H515.277V62.856H515.373V61.896H516.909V59.976H511.629V58.056H515.661V56.136H515.277V55.176H515.181V54.216H515.277V52.776H515.469V51.816H515.949V51.336H515.085V49.896H515.277V48.456H514.029V47.976H521.229V47.016H516.909V46.536H517.677V44.616H515.277V42.696H515.469V42.216H514.797V40.776H515.949V40.296H515.373V40.008C515.373 39.688 515.341 39.4 515.277 39.144C515.277 38.888 515.245 38.632 515.181 38.376H515.757C515.757 37.992 515.661 37.672 515.469 37.416H514.701C514.445 36.84 514.061 36.36 513.549 35.976H514.029C513.517 35.528 512.781 35.304 511.821 35.304C510.925 35.304 510.157 35.528 509.517 35.976C509.069 36.36 508.685 36.84 508.365 37.416H508.077L507.789 38.376H508.365C508.301 38.632 508.269 38.888 508.269 39.144C508.269 39.4 508.269 39.688 508.269 40.008V40.296H506.925V40.776H507.789V42.216H507.597V42.696H507.213V44.616H505.773V46.536H505.484V47.016H510.861V47.976H509.421V48.456H507.597V49.896H507.405V51.336H508.077V51.816H507.885V52.776H507.693V53.736H507.309V54.216H507.021V55.176H507.789V58.056H504.333V59.976H507.885V61.896H507.501V62.856H508.173V64.776H507.885V66.408C507.885 66.472 507.853 66.536 507.789 66.6C507.789 66.6 507.789 66.632 507.789 66.696H508.269L507.981 67.656H505.869C505.677 68.104 505.357 68.424 504.909 68.616H511.821C511.501 68.872 511.053 69 510.477 69H493.197C492.621 69 492.173 68.872 491.853 68.616H484.941C484.621 68.424 484.333 68.104 484.077 67.656H486.093C486.029 67.528 485.965 67.4 485.901 67.272C485.837 67.08 485.805 66.888 485.805 66.696H485.421V64.776H485.709V62.856H485.037V61.896H485.421V59.976H481.869V58.056H485.325V55.176H484.557V54.216H484.845V53.736H485.229V52.776H485.421V51.816H485.613V51.336H484.941V49.896H485.133V48.456H486.957V47.976H488.397V47.016H483.021V46.536H483.309V44.616H484.749V42.696H485.133V42.216H485.325V40.776H484.461V40.296H485.805V38.376H485.133V37.416H485.421V35.976H485.517V35.016H484.941V34.536H485.325V33.096H484.461V31.656H485.133V30.216H485.037V28.296H485.229V27.816H484.461V26.856H485.613V24.936H484.557V24.456H483.98V23.976H480.044V22.536H472.94V22.056H481.293V21.672C481.293 21.096 481.453 20.584 481.773 20.136H487.148C487.277 19.944 487.437 19.784 487.629 19.656H483.405C483.789 19.272 484.333 19.08 485.037 19.08H500.877C501.517 19.08 502.061 19.272 502.509 19.656H506.733C506.861 19.72 506.957 19.784 507.021 19.848C507.085 19.912 507.149 20.008 507.213 20.136H501.837C502.157 20.584 502.317 21.096 502.317 21.672V22.056H493.965V22.536H501.069V23.976H505.005V24.456H505.581V24.84L505.869 24.456H505.773C505.837 24.328 505.965 24.168 506.156 23.976H509.901C510.285 23.464 510.765 22.984 511.341 22.536H513.741L514.317 22.056H508.077C508.525 21.736 508.973 21.416 509.421 21.096C509.933 20.712 510.477 20.392 511.053 20.136H512.013C512.141 20.008 512.269 19.912 512.397 19.848C512.589 19.784 512.781 19.72 512.973 19.656H517.293C518.253 19.208 519.277 18.856 520.365 18.6C521.453 18.344 522.605 18.184 523.821 18.12C527.533 17.992 530.541 18.504 532.845 19.656H528.525C528.653 19.72 528.813 19.784 529.005 19.848C529.197 19.912 529.357 20.008 529.485 20.136H528.525C529.485 20.712 530.317 21.352 531.021 22.056H541.197C541.709 21.672 542.189 21.32 542.637 21C543.149 20.68 543.661 20.392 544.173 20.136H539.949L541.005 19.656H542.637C543.725 19.144 544.845 18.76 545.997 18.504C547.149 18.248 548.333 18.12 549.549 18.12C552.365 18.12 554.893 18.632 557.133 19.656H555.501L556.557 20.136H560.781C561.293 20.392 561.741 20.68 562.125 21C562.573 21.32 563.021 21.672 563.469 22.056H551.181C551.309 22.12 551.405 22.184 551.469 22.248C551.533 22.312 551.597 22.408 551.661 22.536H566.925L568.173 23.976H552.717C552.781 24.104 552.909 24.264 553.101 24.456H562.893C563.085 24.648 563.213 24.808 563.277 24.936H563.757C563.949 25.192 564.141 25.512 564.333 25.896C564.525 26.216 564.717 26.536 564.909 26.856H563.757C563.885 26.984 563.981 27.144 564.045 27.336C564.109 27.528 564.173 27.688 564.237 27.816H564.909C565.037 28.072 565.101 28.232 565.101 28.296H565.005C565.133 28.552 565.261 28.872 565.389 29.256C565.517 29.576 565.613 29.896 565.677 30.216H565.773C565.837 30.472 565.901 30.728 565.965 30.984C566.029 31.176 566.093 31.4 566.157 31.656H565.485L565.773 33.096H566.637C566.701 33.352 566.733 33.608 566.733 33.864C566.733 34.056 566.765 34.28 566.829 34.536H566.541V35.016H567.117L567.213 35.976H567.405C567.469 36.232 567.501 36.488 567.501 36.744C567.501 36.936 567.501 37.16 567.501 37.416H567.213V38.376H566.445V40.296H568.653V40.776H567.213V42.216H567.021V44.616H568.941V46.536ZM535.437 22.536C535.629 22.792 535.821 23.048 536.013 23.304C536.205 23.496 536.365 23.72 536.493 23.976H541.965C542.221 23.72 542.477 23.496 542.733 23.304C542.989 23.048 543.245 22.792 543.501 22.536H535.437ZM533.229 24.456L533.517 24.936H534.669L535.149 25.992C535.277 25.8 535.405 25.64 535.533 25.512C535.661 25.32 535.789 25.128 535.917 24.936H535.437L535.917 24.456H533.229ZM546.381 47.016H545.037V46.536H546.861V44.616H544.941V42.216H545.133V40.776H546.573V40.296H544.365V40.008C544.365 39.688 544.365 39.4 544.365 39.144C544.365 38.888 544.333 38.632 544.269 38.376H545.037L544.749 37.416H545.037C544.781 36.84 544.397 36.36 543.885 35.976H543.693C543.181 35.528 542.445 35.304 541.485 35.304C540.589 35.304 539.821 35.528 539.181 35.976H538.701C538.317 36.296 537.965 36.776 537.645 37.416H538.509C538.317 37.672 538.221 37.992 538.221 38.376H537.549C537.485 38.632 537.453 38.888 537.453 39.144C537.453 39.4 537.453 39.688 537.453 40.008V40.296H538.029V40.776H536.877V42.216H537.549V42.696H537.357V44.616H539.757V46.536H538.989V47.016H543.309V47.976H546.381V47.016Z" fill="url(#paint0_linear_7_2686)"/>
<defs>
<linearGradient id="paint0_linear_7_2686" x1="289" y1="-5" x2="289" y2="112.759" gradientUnits="userSpaceOnUse">
<stop offset="0.376671" stop-color="#DADADA"/>
<stop offset="0.614158" stop-color="#C5DF73"/>
</linearGradient>
</defs>
</svg>
